<svg xmlns="http://www.w3.org/2000/svg" xmlns:xlink="http://www.w3.org/1999/xlink" width="200" zoomAndPan="magnify" viewBox="0 0 150 149.999998" height="200" preserveAspectRatio="xMidYMid meet" version="1.0"><defs><g/></defs><g fill="#ffffff" fill-opacity="1"><g transform="translate(76.164245, 127.556233)"><g><path d="M -13.734375 2.78125 C -13.910156 4.351562 -13.191406 5.726562 -11.578125 6.90625 C -11.316406 7.132812 -10.351562 7.738281 -8.6875 8.71875 C -7.175781 9.601562 -6.253906 10.4375 -5.921875 11.21875 C -5.773438 11.632812 -5.722656 12.054688 -5.765625 12.484375 C -5.898438 13.628906 -6.554688 14.363281 -7.734375 14.6875 C -8.234375 14.832031 -8.769531 14.875 -9.34375 14.8125 C -10.832031 14.644531 -11.898438 14 -12.546875 12.875 C -13.003906 12.113281 -13.171875 11.226562 -13.046875 10.21875 L -13.90625 10.109375 L -14.453125 14.84375 C -13.984375 14.894531 -13.703125 14.769531 -13.609375 14.46875 C -13.554688 14.351562 -13.519531 14.207031 -13.5 14.03125 C -12.25 14.875 -10.828125 15.382812 -9.234375 15.5625 C -7.273438 15.789062 -5.691406 15.429688 -4.484375 14.484375 C -3.660156 13.828125 -3.191406 12.988281 -3.078125 11.96875 C -2.898438 10.46875 -3.59375 9.140625 -5.15625 7.984375 C -5.445312 7.785156 -6.414062 7.1875 -8.0625 6.1875 C -9.570312 5.300781 -10.503906 4.453125 -10.859375 3.640625 C -11.035156 3.222656 -11.097656 2.785156 -11.046875 2.328125 C -10.898438 1.066406 -10.195312 0.238281 -8.9375 -0.15625 C -8.375 -0.332031 -7.753906 -0.382812 -7.078125 -0.3125 C -4.484375 -0.0195312 -3.144531 1.648438 -3.0625 4.703125 C -3.0625 4.898438 -3.066406 5.085938 -3.078125 5.265625 L -2.203125 5.359375 L -1.578125 -0.234375 C -2.015625 -0.273438 -2.289062 -0.175781 -2.40625 0.0625 C -2.457031 0.207031 -2.503906 0.460938 -2.546875 0.828125 C -3.816406 -0.242188 -5.351562 -0.878906 -7.15625 -1.078125 C -9.238281 -1.316406 -10.914062 -0.953125 -12.1875 0.015625 C -13.09375 0.742188 -13.609375 1.664062 -13.734375 2.78125 Z M -13.734375 2.78125 "/></g></g></g><g fill="#ffffff" fill-opacity="1"><g transform="translate(62.902818, 126.159832)"><g><path d="M -5.359375 4.234375 C -6.566406 7.566406 -8.222656 8.867188 -10.328125 8.140625 C -12.410156 7.359375 -12.867188 5.332031 -11.703125 2.0625 C -10.453125 -1.363281 -8.796875 -2.71875 -6.734375 -2 C -4.617188 -1.207031 -4.160156 0.867188 -5.359375 4.234375 Z M -10.640625 8.734375 C -8.929688 9.347656 -7.304688 9.273438 -5.765625 8.515625 C -4.441406 7.816406 -3.507812 6.71875 -2.96875 5.21875 C -2.21875 3.132812 -2.394531 1.28125 -3.5 -0.34375 C -4.226562 -1.40625 -5.207031 -2.160156 -6.4375 -2.609375 C -8.113281 -3.210938 -9.707031 -3.113281 -11.21875 -2.3125 C -12.59375 -1.601562 -13.5625 -0.460938 -14.125 1.109375 C -14.875 3.171875 -14.675781 5.003906 -13.53125 6.609375 C -12.8125 7.585938 -11.847656 8.296875 -10.640625 8.734375 Z M -10.640625 8.734375 "/></g></g></g><g fill="#ffffff" fill-opacity="1"><g transform="translate(50.824319, 121.64139)"><g><path d="M -6.4375 -2.984375 L -4.78125 -2.015625 L -9.90625 6.78125 L -12.609375 5.203125 L -12.953125 5.78125 L -10.25 7.359375 L -10.34375 7.515625 C -11.863281 10.128906 -13.09375 11.414062 -14.03125 11.375 C -14.269531 11.363281 -14.492188 11.296875 -14.703125 11.171875 C -15.171875 10.898438 -15.382812 10.375 -15.34375 9.59375 C -15.332031 8.882812 -15.351562 8.4375 -15.40625 8.25 C -15.5 8.050781 -15.628906 7.898438 -15.796875 7.796875 C -16.347656 7.484375 -16.8125 7.523438 -17.1875 7.921875 C -17.25 7.984375 -17.304688 8.050781 -17.359375 8.125 C -17.703125 8.726562 -17.582031 9.421875 -17 10.203125 C -16.625 10.691406 -16.132812 11.109375 -15.53125 11.453125 C -14 12.347656 -12.515625 12.410156 -11.078125 11.640625 C -10.085938 11.078125 -9.21875 10.15625 -8.46875 8.875 L -8.265625 8.515625 L -6.578125 9.5 L -6.234375 8.921875 L -7.921875 7.9375 L -3.609375 0.53125 C -3.179688 -0.1875 -2.691406 -0.484375 -2.140625 -0.359375 C -1.878906 -0.273438 -1.515625 -0.0976562 -1.046875 0.171875 L -0.703125 -0.40625 L -6.671875 -3.890625 C -6.867188 -3.546875 -6.867188 -3.296875 -6.671875 -3.140625 C -6.597656 -3.078125 -6.519531 -3.023438 -6.4375 -2.984375 Z M -6.4375 -2.984375 "/></g></g></g><g fill="#ffffff" fill-opacity="1"><g transform="translate(44.188361, 117.857444)"><g><path d="M -7.140625 8.15625 L -8.625 6.984375 L -3.984375 1.125 C -2.609375 -0.789062 -2.703125 -2.421875 -4.265625 -3.765625 C -5.597656 -4.816406 -7.0625 -4.671875 -8.65625 -3.328125 C -8.664062 -3.316406 -8.675781 -3.304688 -8.6875 -3.296875 L -8.1875 -2.734375 C -6.90625 -3.765625 -5.898438 -3.992188 -5.171875 -3.421875 C -4.421875 -2.804688 -4.46875 -1.96875 -5.3125 -0.90625 L -10.4375 5.546875 L -13.625 3.015625 L -14.046875 3.546875 L -10.859375 6.078125 L -12.8125 8.546875 L -10.640625 9.53125 L -9.046875 7.515625 L -7.5625 8.6875 Z M -7.140625 8.15625 "/></g></g></g><g fill="#ffffff" fill-opacity="1"><g transform="translate(37.651944, 113.543489)"><g><path d="M -12.046875 2.34375 L -12.5625 2.765625 L -9.09375 7.078125 L -8.578125 6.65625 L -9.328125 5.71875 L -4.328125 -2.546875 C -3.753906 -3.472656 -3.519531 -4.148438 -3.625 -4.578125 C -3.6875 -4.773438 -3.8125 -4.992188 -4 -5.234375 L -4.375 -5.6875 L -11.515625 -3.03125 L -8.53125 -7.8125 C -7.945312 -8.707031 -7.695312 -9.34375 -7.78125 -9.71875 C -7.820312 -9.925781 -7.945312 -10.15625 -8.15625 -10.40625 L -8.46875 -10.8125 L -18.375 -7.109375 C -18.9375 -6.898438 -19.320312 -6.882812 -19.53125 -7.0625 C -19.601562 -7.113281 -19.664062 -7.175781 -19.71875 -7.25 C -19.96875 -7.5625 -20.21875 -7.640625 -20.46875 -7.484375 C -20.53125 -7.453125 -20.59375 -7.410156 -20.65625 -7.359375 L -18.1875 -4.265625 L -17.671875 -4.6875 L -18.828125 -6.140625 L -9.9375 -9.5 L -15.0625 -1.4375 L -16.21875 -2.875 L -16.734375 -2.453125 L -14.015625 0.953125 L -12.171875 -2.03125 L -5.734375 -4.4375 L -10.8125 3.859375 Z M -12.046875 2.34375 "/></g></g></g><g fill="#ffffff" fill-opacity="1"><g transform="translate(27.031399, 100.006114)"><g><path d="M -4.015625 -9.765625 C -4.546875 -10.960938 -5.457031 -11.410156 -6.75 -11.109375 C -7.007812 -11.035156 -7.285156 -10.941406 -7.578125 -10.828125 L -7.328125 -10.171875 C -6.085938 -10.585938 -5.34375 -10.546875 -5.09375 -10.046875 C -4.9375 -9.609375 -5.265625 -9.203125 -6.078125 -8.828125 L -11.296875 -6.515625 C -13.785156 -5.378906 -14.441406 -3.460938 -13.265625 -0.765625 C -12.421875 1.148438 -11.425781 2.226562 -10.28125 2.46875 C -9.914062 2.539062 -9.59375 2.519531 -9.3125 2.40625 C -8.78125 2.164062 -8.566406 1.769531 -8.671875 1.21875 C -8.703125 1.09375 -8.738281 0.984375 -8.78125 0.890625 C -8.976562 0.441406 -9.382812 0.238281 -10 0.28125 C -10.75 0.332031 -11.175781 0.351562 -11.28125 0.34375 C -11.84375 0.21875 -12.265625 -0.15625 -12.546875 -0.78125 C -13.160156 -2.257812 -12.628906 -3.382812 -10.953125 -4.15625 L -9.40625 -4.84375 C -7.5625 -0.738281 -5.625 1.066406 -3.59375 0.578125 C -3.382812 0.535156 -3.175781 0.46875 -2.96875 0.375 C -1.664062 -0.195312 -1.046875 -1.15625 -1.109375 -2.5 C -1.128906 -3 -1.25 -3.5 -1.46875 -4 C -2 -5.207031 -2.851562 -6.023438 -4.03125 -6.453125 C -4.476562 -6.609375 -4.914062 -6.679688 -5.34375 -6.671875 C -3.945312 -7.535156 -3.503906 -8.566406 -4.015625 -9.765625 Z M -2.890625 -4.453125 C -2.429688 -3.421875 -2.742188 -2.570312 -3.828125 -1.90625 C -3.992188 -1.820312 -4.164062 -1.742188 -4.34375 -1.671875 C -5.457031 -1.171875 -6.429688 -1.46875 -7.265625 -2.5625 C -7.691406 -3.144531 -8.171875 -4.007812 -8.703125 -5.15625 L -6.640625 -6.0625 C -5.378906 -6.28125 -4.335938 -6.03125 -3.515625 -5.3125 C -3.222656 -5.039062 -3.015625 -4.753906 -2.890625 -4.453125 Z M -2.890625 -4.453125 "/></g></g></g><g fill="#ffffff" fill-opacity="1"><g transform="translate(22.17619, 89.024984)"><g><path d="M -2.203125 -6.703125 L -1.765625 -4.796875 L -7.59375 -3.484375 C -9.132812 -3.265625 -10.378906 -3.523438 -11.328125 -4.265625 C -11.660156 -4.492188 -11.847656 -4.710938 -11.890625 -4.921875 C -11.953125 -5.191406 -11.785156 -5.5 -11.390625 -5.84375 C -10.972656 -6.226562 -10.75 -6.578125 -10.71875 -6.890625 C -10.707031 -7.015625 -10.71875 -7.140625 -10.75 -7.265625 C -10.882812 -7.847656 -11.238281 -8.160156 -11.8125 -8.203125 C -11.957031 -8.210938 -12.09375 -8.207031 -12.21875 -8.1875 C -13.03125 -8 -13.4375 -7.476562 -13.4375 -6.625 C -13.4375 -6.445312 -13.414062 -6.257812 -13.375 -6.0625 C -13.125 -4.96875 -12.445312 -4.101562 -11.34375 -3.46875 C -10.875 -3.195312 -10.367188 -3.015625 -9.828125 -2.921875 L -12.328125 -2.25 L -11.421875 1.734375 L -10.765625 1.59375 L -11.1875 -0.28125 L -2.8125 -2.171875 C -2 -2.347656 -1.460938 -2.21875 -1.203125 -1.78125 C -1.078125 -1.550781 -0.953125 -1.175781 -0.828125 -0.65625 L -0.171875 -0.796875 L -1.6875 -7.5 C -2.070312 -7.414062 -2.253906 -7.238281 -2.234375 -6.96875 C -2.234375 -6.894531 -2.222656 -6.804688 -2.203125 -6.703125 Z M -2.203125 -6.703125 "/></g></g></g><g fill="#ffffff" fill-opacity="1"><g transform="translate(19.853201, 79.567613)"><g><path d="M -11.359375 -6.421875 C -11.398438 -7.648438 -10.867188 -8.460938 -9.765625 -8.859375 C -9.421875 -8.972656 -9.054688 -9.035156 -8.671875 -9.046875 C -7.785156 -9.078125 -7.234375 -8.703125 -7.015625 -7.921875 C -6.898438 -7.472656 -6.835938 -6.847656 -6.828125 -6.046875 L -6.828125 -3.40625 C -8.953125 -3.394531 -10.351562 -4 -11.03125 -5.21875 C -11.238281 -5.59375 -11.347656 -5.992188 -11.359375 -6.421875 Z M -2.984375 -11.484375 L -3.21875 -10.796875 C -1.925781 -10.253906 -1.125 -9.359375 -0.8125 -8.109375 C -0.75 -7.816406 -0.710938 -7.535156 -0.703125 -7.265625 C -0.648438 -5.359375 -1.820312 -4.148438 -4.21875 -3.640625 C -4.78125 -3.523438 -5.394531 -3.453125 -6.0625 -3.421875 L -6.109375 -6.53125 C -6.140625 -8.84375 -6.421875 -10.304688 -6.953125 -10.921875 C -7.328125 -11.328125 -7.820312 -11.519531 -8.4375 -11.5 C -9.71875 -11.457031 -10.707031 -10.773438 -11.40625 -9.453125 C -11.863281 -8.546875 -12.070312 -7.515625 -12.03125 -6.359375 C -11.96875 -4.171875 -11.046875 -2.585938 -9.265625 -1.609375 C -8.234375 -1.066406 -7.0625 -0.816406 -5.75 -0.859375 C -3.4375 -0.929688 -1.765625 -1.820312 -0.734375 -3.53125 C -0.171875 -4.507812 0.09375 -5.601562 0.0625 -6.8125 C 0 -8.832031 -0.773438 -10.28125 -2.265625 -11.15625 C -2.515625 -11.269531 -2.753906 -11.378906 -2.984375 -11.484375 Z M -2.984375 -11.484375 "/></g></g></g><g fill="#ffffff" fill-opacity="1"><g transform="translate(19.691779, 67.796343)"><g/></g></g><g fill="#ffffff" fill-opacity="1"><g transform="translate(19.709735, 63.400394)"><g><path d="M -7.0625 -16.40625 L -11.8125 -17.65625 L -15.34375 -5.453125 L -14.671875 -5.25 L -14.0625 -7.328125 L 0.203125 -3.203125 L -0.40625 -1.125 L 0.265625 -0.9375 L 3.796875 -13.140625 L -0.90625 -14.625 L -1.0625 -14.0625 L 0.140625 -13.265625 C 1.492188 -12.390625 2.164062 -11.4375 2.15625 -10.40625 C 2.164062 -10.144531 2.132812 -9.882812 2.0625 -9.625 L 0.921875 -5.703125 L -6.078125 -7.734375 L -4.546875 -13.046875 L -5.3125 -13.265625 L -6.84375 -7.953125 L -13.34375 -9.828125 L -12.203125 -13.75 C -11.816406 -15.09375 -10.675781 -15.78125 -8.78125 -15.8125 C -8.726562 -15.8125 -8.6875 -15.8125 -8.65625 -15.8125 L -7.21875 -15.84375 Z M -7.0625 -16.40625 "/></g></g></g><g fill="#ffffff" fill-opacity="1"><g transform="translate(23.357297, 50.109634)"><g><path d="M 2.515625 -5.625 L 1.953125 -4.671875 L -3.203125 -7.6875 C -4.585938 -8.539062 -5.328125 -9.613281 -5.421875 -10.90625 C -5.421875 -11.457031 -5.300781 -11.9375 -5.0625 -12.34375 C -4.507812 -13.300781 -3.691406 -13.671875 -2.609375 -13.453125 C -2.203125 -13.359375 -1.796875 -13.195312 -1.390625 -12.96875 L 3.328125 -10.203125 C 4.023438 -9.785156 4.328125 -9.332031 4.234375 -8.84375 C 4.191406 -8.582031 4.035156 -8.226562 3.765625 -7.78125 L 4.34375 -7.4375 L 7.4375 -12.71875 C 7.09375 -12.914062 6.835938 -12.90625 6.671875 -12.6875 C 6.628906 -12.632812 6.582031 -12.566406 6.53125 -12.484375 L 5.875 -11.375 L 0.015625 -14.796875 C -1.617188 -15.753906 -3.070312 -15.851562 -4.34375 -15.09375 C -4.882812 -14.757812 -5.316406 -14.320312 -5.640625 -13.78125 C -6.304688 -12.625 -6.398438 -11.394531 -5.921875 -10.09375 C -5.765625 -9.644531 -5.535156 -9.222656 -5.234375 -8.828125 L -7.484375 -10.03125 L -9.5625 -6.484375 L -8.984375 -6.140625 L -8.015625 -7.8125 L -0.609375 -3.484375 C 0.109375 -3.054688 0.414062 -2.585938 0.3125 -2.078125 C 0.238281 -1.804688 0.0703125 -1.445312 -0.1875 -1 L 0.390625 -0.65625 L 3.4375 -5.859375 C 3.09375 -6.054688 2.835938 -6.050781 2.671875 -5.84375 C 2.617188 -5.789062 2.566406 -5.71875 2.515625 -5.625 Z M 2.515625 -5.625 "/></g></g></g><g fill="#ffffff" fill-opacity="1"><g transform="translate(30.438708, 37.965681)"><g><path d="M -2.84375 -7.875 C -4.476562 -9.4375 -4.851562 -10.796875 -3.96875 -11.953125 C -3.90625 -12.054688 -3.832031 -12.15625 -3.75 -12.25 C -2.726562 -13.320312 -1.484375 -13.289062 -0.015625 -12.15625 C 0.191406 -11.96875 0.414062 -11.757812 0.65625 -11.53125 C 2.257812 -9.78125 2.578125 -8.316406 1.609375 -7.140625 C 0.523438 -5.992188 -0.84375 -6.128906 -2.5 -7.546875 C -2.613281 -7.660156 -2.726562 -7.769531 -2.84375 -7.875 Z M -4.203125 -12.71875 C -5.398438 -11.457031 -5.921875 -10.109375 -5.765625 -8.671875 C -5.660156 -7.679688 -5.238281 -6.835938 -4.5 -6.140625 C -3.519531 -5.210938 -2.253906 -4.898438 -0.703125 -5.203125 C -0.515625 -5.234375 -0.335938 -5.273438 -0.171875 -5.328125 C -0.941406 -4.523438 -1.082031 -3.664062 -0.59375 -2.75 C -0.457031 -2.519531 -0.296875 -2.3125 -0.109375 -2.125 C 0.597656 -1.476562 1.375 -1.257812 2.21875 -1.46875 C 2.289062 -0.613281 2.546875 0.0234375 2.984375 0.453125 C 3.703125 1.140625 4.644531 1.21875 5.8125 0.6875 C 6.59375 0.34375 7.363281 -0.226562 8.125 -1.03125 C 10.050781 -3.039062 10.828125 -4.820312 10.453125 -6.375 C 10.328125 -6.894531 10.082031 -7.328125 9.71875 -7.671875 C 8.5625 -8.785156 7.265625 -8.765625 5.828125 -7.609375 C 5.648438 -7.460938 5.472656 -7.296875 5.296875 -7.109375 L 1.71875 -3.515625 C 1.144531 -2.992188 0.625 -2.945312 0.15625 -3.375 C -0.164062 -3.6875 -0.1875 -4.078125 0.09375 -4.546875 C 0.164062 -4.648438 0.25 -4.753906 0.34375 -4.859375 L 2.03125 -6.609375 L 2.078125 -6.65625 C 3.234375 -7.863281 3.738281 -9.207031 3.59375 -10.6875 C 3.488281 -11.71875 3.054688 -12.597656 2.296875 -13.328125 C 1.296875 -14.234375 0.160156 -14.597656 -1.109375 -14.421875 C -1.378906 -15.054688 -1.363281 -15.566406 -1.0625 -15.953125 C -0.894531 -16.128906 -0.597656 -16.226562 -0.171875 -16.25 C 0.0859375 -16.269531 0.285156 -16.347656 0.421875 -16.484375 C 0.722656 -16.804688 0.75 -17.15625 0.5 -17.53125 C 0.425781 -17.601562 0.375 -17.660156 0.34375 -17.703125 C -0.09375 -18.109375 -0.585938 -18.179688 -1.140625 -17.921875 C -1.328125 -17.828125 -1.492188 -17.695312 -1.640625 -17.53125 C -2.222656 -16.925781 -2.398438 -16.15625 -2.171875 -15.21875 C -2.097656 -14.863281 -1.976562 -14.546875 -1.8125 -14.265625 C -2.707031 -13.972656 -3.503906 -13.457031 -4.203125 -12.71875 Z M 7.609375 -1.515625 C 6.335938 -0.179688 5.203125 0.347656 4.203125 0.078125 C 3.921875 -0.015625 3.691406 -0.144531 3.515625 -0.3125 C 3.191406 -0.644531 2.992188 -1.113281 2.921875 -1.71875 C 3.203125 -1.882812 3.453125 -2.082031 3.671875 -2.3125 L 6.765625 -5.484375 C 7.648438 -6.390625 8.351562 -6.742188 8.875 -6.546875 C 9.0625 -6.472656 9.222656 -6.367188 9.359375 -6.234375 C 9.953125 -5.671875 9.851562 -4.726562 9.0625 -3.40625 C 8.695312 -2.769531 8.210938 -2.140625 7.609375 -1.515625 Z M 7.609375 -1.515625 "/></g></g></g><g fill="#ffffff" fill-opacity="1"><g transform="translate(38.943081, 29.25565)"><g><path d="M 4.75 -4.375 L 3.71875 -3.609375 L -2.734375 -12.328125 L -6.234375 -9.734375 L -5.84375 -9.1875 L -4.1875 -10.40625 L 0.921875 -3.515625 C 1.421875 -2.847656 1.492188 -2.28125 1.140625 -1.8125 C 0.960938 -1.601562 0.65625 -1.335938 0.21875 -1.015625 L 0.625 -0.46875 L 5.703125 -4.21875 C 5.460938 -4.539062 5.222656 -4.640625 4.984375 -4.515625 C 4.910156 -4.484375 4.832031 -4.4375 4.75 -4.375 Z M -4.796875 -15.609375 C -5.191406 -16.140625 -5.710938 -16.351562 -6.359375 -16.25 C -6.609375 -16.207031 -6.828125 -16.117188 -7.015625 -15.984375 C -7.546875 -15.585938 -7.753906 -15.054688 -7.640625 -14.390625 C -7.585938 -14.148438 -7.488281 -13.929688 -7.34375 -13.734375 C -6.9375 -13.179688 -6.398438 -12.972656 -5.734375 -13.109375 C -5.503906 -13.160156 -5.296875 -13.257812 -5.109375 -13.40625 C -4.585938 -13.789062 -4.382812 -14.304688 -4.5 -14.953125 C -4.5625 -15.203125 -4.660156 -15.421875 -4.796875 -15.609375 Z M -4.796875 -15.609375 "/></g></g></g><g fill="#ffffff" fill-opacity="1"><g transform="translate(44.153586, 24.827637)"><g><path d="M 5.21875 -3.265625 L 4.21875 -2.78125 L 1.640625 -8.15625 C 0.953125 -9.644531 0.941406 -10.953125 1.609375 -12.078125 C 1.898438 -12.535156 2.257812 -12.867188 2.6875 -13.078125 C 3.675781 -13.554688 4.566406 -13.40625 5.359375 -12.625 C 5.640625 -12.3125 5.882812 -11.945312 6.09375 -11.53125 L 8.46875 -6.609375 C 8.8125 -5.867188 8.804688 -5.328125 8.453125 -4.984375 C 8.253906 -4.785156 7.921875 -4.570312 7.453125 -4.34375 L 7.75 -3.734375 L 13.28125 -6.390625 C 13.113281 -6.742188 12.894531 -6.882812 12.625 -6.8125 C 12.550781 -6.789062 12.46875 -6.757812 12.375 -6.71875 L 11.21875 -6.15625 L 8.28125 -12.265625 C 7.457031 -13.972656 6.300781 -14.867188 4.8125 -14.953125 C 4.195312 -14.984375 3.601562 -14.859375 3.03125 -14.578125 C 1.820312 -14.003906 1.054688 -13.035156 0.734375 -11.671875 C 0.597656 -11.222656 0.546875 -10.75 0.578125 -10.25 L -0.609375 -12.5 L -4.3125 -10.71875 L -4.03125 -10.109375 L -2.28125 -10.953125 L 1.453125 -3.234375 C 1.804688 -2.472656 1.796875 -1.910156 1.421875 -1.546875 C 1.203125 -1.367188 0.859375 -1.164062 0.390625 -0.9375 L 0.6875 -0.328125 L 6.125 -2.953125 C 5.957031 -3.304688 5.738281 -3.441406 5.46875 -3.359375 C 5.394531 -3.335938 5.3125 -3.304688 5.21875 -3.265625 Z M 5.21875 -3.265625 "/></g></g></g><g fill="#ffffff" fill-opacity="1"><g transform="translate(56.840825, 18.728519)"><g><path d="M 4.140625 -12.375 C 5.347656 -12.644531 6.253906 -12.269531 6.859375 -11.25 C 7.035156 -10.945312 7.164062 -10.609375 7.25 -10.234375 C 7.445312 -9.367188 7.175781 -8.75 6.4375 -8.375 C 6.019531 -8.1875 5.421875 -8.015625 4.640625 -7.859375 L 2.046875 -7.359375 C 1.640625 -9.441406 1.96875 -10.925781 3.03125 -11.8125 C 3.351562 -12.09375 3.722656 -12.28125 4.140625 -12.375 Z M 10.703125 -5.09375 L 10 -5.203125 C 9.695312 -3.828125 8.960938 -2.867188 7.796875 -2.328125 C 7.523438 -2.210938 7.257812 -2.125 7 -2.0625 C 5.132812 -1.644531 3.722656 -2.570312 2.765625 -4.84375 C 2.554688 -5.363281 2.367188 -5.953125 2.203125 -6.609375 L 5.265625 -7.234375 C 7.523438 -7.703125 8.90625 -8.253906 9.40625 -8.890625 C 9.738281 -9.335938 9.835938 -9.859375 9.703125 -10.453125 C 9.421875 -11.703125 8.5625 -12.546875 7.125 -12.984375 C 6.144531 -13.265625 5.09375 -13.273438 3.96875 -13.015625 C 1.832031 -12.535156 0.453125 -11.332031 -0.171875 -9.40625 C -0.515625 -8.28125 -0.539062 -7.078125 -0.25 -5.796875 C 0.25 -3.535156 1.4375 -2.066406 3.3125 -1.390625 C 4.382812 -1.015625 5.507812 -0.957031 6.6875 -1.21875 C 8.664062 -1.664062 9.945312 -2.703125 10.53125 -4.328125 C 10.59375 -4.585938 10.648438 -4.84375 10.703125 -5.09375 Z M 10.703125 -5.09375 "/></g></g></g><g fill="#ffffff" fill-opacity="1"><g transform="translate(68.006552, 16.097548)"><g><path d="M 6.59375 -11.265625 C 7.820312 -11.285156 8.628906 -10.738281 9.015625 -9.625 C 9.117188 -9.28125 9.175781 -8.914062 9.1875 -8.53125 C 9.195312 -7.644531 8.804688 -7.097656 8.015625 -6.890625 C 7.566406 -6.773438 6.941406 -6.722656 6.140625 -6.734375 L 3.5 -6.78125 C 3.53125 -8.90625 4.15625 -10.289062 5.375 -10.9375 C 5.757812 -11.144531 6.164062 -11.253906 6.59375 -11.265625 Z M 11.515625 -2.796875 L 10.84375 -3.046875 C 10.28125 -1.765625 9.367188 -0.976562 8.109375 -0.6875 C 7.828125 -0.632812 7.550781 -0.601562 7.28125 -0.59375 C 5.375 -0.5625 4.179688 -1.753906 3.703125 -4.171875 C 3.597656 -4.734375 3.535156 -5.347656 3.515625 -6.015625 L 6.625 -6.015625 C 8.9375 -6.003906 10.398438 -6.257812 11.015625 -6.78125 C 11.429688 -7.15625 11.632812 -7.648438 11.625 -8.265625 C 11.601562 -9.546875 10.9375 -10.546875 9.625 -11.265625 C 8.71875 -11.722656 7.6875 -11.945312 6.53125 -11.9375 C 4.34375 -11.894531 2.75 -10.992188 1.75 -9.234375 C 1.1875 -8.210938 0.914062 -7.046875 0.9375 -5.734375 C 0.976562 -3.421875 1.84375 -1.738281 3.53125 -0.6875 C 4.5 -0.101562 5.585938 0.175781 6.796875 0.15625 C 8.816406 0.125 10.28125 -0.625 11.1875 -2.09375 C 11.3125 -2.332031 11.421875 -2.566406 11.515625 -2.796875 Z M 11.515625 -2.796875 "/></g></g></g><g fill="#ffffff" fill-opacity="1"><g transform="translate(79.543493, 15.902506)"><g><path d="M 7.03125 0.5625 L 5.109375 0.234375 L 6.140625 -5.640625 C 6.535156 -7.148438 7.253906 -8.207031 8.296875 -8.8125 C 8.640625 -9.019531 8.921875 -9.101562 9.140625 -9.0625 C 9.398438 -9.019531 9.617188 -8.742188 9.796875 -8.234375 C 9.992188 -7.703125 10.226562 -7.363281 10.5 -7.21875 C 10.613281 -7.164062 10.734375 -7.125 10.859375 -7.09375 C 11.441406 -7 11.875 -7.207031 12.15625 -7.71875 C 12.21875 -7.851562 12.257812 -7.984375 12.28125 -8.109375 C 12.425781 -8.929688 12.101562 -9.503906 11.3125 -9.828125 C 11.144531 -9.898438 10.960938 -9.953125 10.765625 -9.984375 C 9.660156 -10.179688 8.597656 -9.890625 7.578125 -9.109375 C 7.148438 -8.785156 6.789062 -8.390625 6.5 -7.921875 L 6.84375 -10.5 L 2.8125 -11.21875 L 2.6875 -10.546875 L 4.578125 -10.203125 L 3.078125 -1.765625 C 2.941406 -0.941406 2.617188 -0.492188 2.109375 -0.421875 C 1.847656 -0.390625 1.453125 -0.421875 0.921875 -0.515625 L 0.796875 0.140625 L 7.5625 1.34375 C 7.632812 0.957031 7.539062 0.71875 7.28125 0.625 C 7.21875 0.601562 7.132812 0.582031 7.03125 0.5625 Z M 7.03125 0.5625 "/></g></g></g><g fill="#ffffff" fill-opacity="1"><g transform="translate(89.408432, 17.783286)"><g/></g></g><g fill="#ffffff" fill-opacity="1"><g transform="translate(93.969305, 19.199772)"><g><path d="M 4.390625 0.359375 C 4.628906 -0.222656 4.546875 -0.75 4.140625 -1.21875 C 3.984375 -1.40625 3.804688 -1.539062 3.609375 -1.625 C 3.035156 -1.851562 2.515625 -1.757812 2.046875 -1.34375 C 1.859375 -1.164062 1.722656 -0.976562 1.640625 -0.78125 C 1.398438 -0.195312 1.492188 0.328125 1.921875 0.796875 C 2.078125 0.960938 2.253906 1.082031 2.453125 1.15625 C 3.035156 1.40625 3.5625 1.316406 4.03125 0.890625 C 4.1875 0.734375 4.304688 0.554688 4.390625 0.359375 Z M 4.390625 0.359375 "/></g></g></g><g fill="#ffffff" fill-opacity="1"><g transform="translate(98.512224, 21.064915)"><g/></g></g><g fill="#ffffff" fill-opacity="1"><g transform="translate(102.626051, 22.386224)"><g><path d="M 10.875 -12.09375 L 10.4375 -11.546875 L 12.140625 -10.203125 L 2.890625 1.40625 L 1.1875 0.0625 L 0.75 0.609375 L 6.703125 5.34375 C 8.628906 6.875 10.691406 7.539062 12.890625 7.34375 C 15.015625 7.113281 16.820312 6.066406 18.3125 4.203125 C 20.238281 1.796875 20.765625 -0.679688 19.890625 -3.234375 C 19.335938 -4.796875 18.328125 -6.164062 16.859375 -7.34375 Z M 16.390625 -6.8125 C 18.484375 -5.144531 19.019531 -3.097656 18 -0.671875 C 17.59375 0.265625 16.96875 1.265625 16.125 2.328125 C 12.988281 6.222656 10.003906 7.050781 7.171875 4.8125 L 4.921875 3.03125 L 14.171875 -8.578125 Z M 16.390625 -6.8125 "/></g></g></g><g fill="#ffffff" fill-opacity="1"><g transform="translate(115.745186, 33.035113)"><g><path d="M 6.109375 8.609375 C 6.878906 9.660156 7.863281 9.898438 9.0625 9.328125 C 9.300781 9.191406 9.550781 9.035156 9.8125 8.859375 L 9.40625 8.28125 C 8.289062 8.957031 7.550781 9.078125 7.1875 8.640625 C 6.96875 8.253906 7.203125 7.789062 7.890625 7.25 L 12.453125 3.828125 C 14.648438 2.148438 14.863281 0.132812 13.09375 -2.21875 C 11.84375 -3.894531 10.628906 -4.726562 9.453125 -4.71875 C 9.078125 -4.695312 8.769531 -4.59375 8.53125 -4.40625 C 8.0625 -4.0625 7.945312 -3.632812 8.1875 -3.125 C 8.238281 -3.007812 8.296875 -2.910156 8.359375 -2.828125 C 8.648438 -2.429688 9.09375 -2.320312 9.6875 -2.5 C 10.40625 -2.71875 10.816406 -2.832031 10.921875 -2.84375 C 11.503906 -2.851562 12 -2.582031 12.40625 -2.03125 C 13.34375 -0.726562 13.078125 0.476562 11.609375 1.59375 L 10.234375 2.625 C 7.535156 -0.96875 5.242188 -2.300781 3.359375 -1.375 C 3.179688 -1.28125 3 -1.164062 2.8125 -1.03125 C 1.675781 -0.175781 1.285156 0.894531 1.640625 2.1875 C 1.773438 2.664062 2.003906 3.125 2.328125 3.5625 C 3.117188 4.625 4.132812 5.234375 5.375 5.390625 C 5.84375 5.441406 6.285156 5.414062 6.703125 5.3125 C 5.535156 6.46875 5.335938 7.566406 6.109375 8.609375 Z M 3.8125 3.703125 C 3.132812 2.796875 3.25 1.894531 4.15625 1 C 4.300781 0.882812 4.453125 0.769531 4.609375 0.65625 C 5.585938 -0.0703125 6.601562 0 7.65625 0.875 C 8.207031 1.34375 8.863281 2.078125 9.625 3.078125 L 7.828125 4.421875 C 6.660156 4.910156 5.585938 4.898438 4.609375 4.390625 C 4.273438 4.191406 4.007812 3.960938 3.8125 3.703125 Z M 3.8125 3.703125 "/></g></g></g><g fill="#ffffff" fill-opacity="1"><g transform="translate(122.899037, 42.762932)"><g><path d="M 9.921875 -4.359375 L 10.765625 -2.671875 L 4.078125 0.65625 C 2.015625 1.820312 1.410156 3.34375 2.265625 5.21875 C 3.023438 6.738281 4.410156 7.234375 6.421875 6.703125 C 6.441406 6.691406 6.457031 6.6875 6.46875 6.6875 L 6.265625 5.96875 C 4.660156 6.332031 3.644531 6.109375 3.21875 5.296875 C 2.8125 4.421875 3.21875 3.675781 4.4375 3.0625 L 11.796875 -0.609375 L 13.609375 3.046875 L 14.234375 2.75 L 12.421875 -0.90625 L 15.234375 -2.3125 L 13.6875 -4.109375 L 11.390625 -2.96875 L 10.546875 -4.65625 Z M 9.921875 -4.359375 "/></g></g></g><g fill="#ffffff" fill-opacity="1"><g transform="translate(126.707762, 49.792192)"><g><path d="M 2.6875 10.21875 C 3.050781 11.46875 3.882812 12.03125 5.1875 11.90625 C 5.46875 11.875 5.757812 11.820312 6.0625 11.75 L 5.875 11.0625 C 4.59375 11.300781 3.867188 11.15625 3.703125 10.625 C 3.609375 10.175781 3.984375 9.820312 4.828125 9.5625 L 10.3125 7.96875 C 12.945312 7.1875 13.859375 5.375 13.046875 2.53125 C 12.460938 0.519531 11.625 -0.679688 10.53125 -1.078125 C 10.164062 -1.191406 9.835938 -1.207031 9.546875 -1.125 C 8.984375 -0.957031 8.722656 -0.597656 8.765625 -0.046875 C 8.773438 0.078125 8.796875 0.191406 8.828125 0.296875 C 8.960938 0.765625 9.34375 1.019531 9.96875 1.0625 C 10.695312 1.101562 11.117188 1.140625 11.234375 1.171875 C 11.773438 1.367188 12.140625 1.796875 12.328125 2.453125 C 12.742188 4.003906 12.070312 5.046875 10.3125 5.578125 L 8.671875 6.0625 C 7.390625 1.738281 5.707031 -0.3125 3.625 -0.09375 C 3.425781 -0.0703125 3.21875 -0.03125 3 0.03125 C 1.625 0.425781 0.878906 1.289062 0.765625 2.625 C 0.722656 3.125 0.78125 3.632812 0.9375 4.15625 C 1.300781 5.425781 2.03125 6.351562 3.125 6.9375 C 3.550781 7.15625 3.972656 7.285156 4.390625 7.328125 C 2.898438 7.992188 2.332031 8.957031 2.6875 10.21875 Z M 2.265625 4.8125 C 1.953125 3.71875 2.378906 2.914062 3.546875 2.40625 C 3.703125 2.351562 3.878906 2.296875 4.078125 2.234375 C 5.242188 1.898438 6.171875 2.328125 6.859375 3.515625 C 7.203125 4.148438 7.5625 5.066406 7.9375 6.265625 L 5.78125 6.890625 C 4.5 6.941406 3.492188 6.554688 2.765625 5.734375 C 2.523438 5.429688 2.359375 5.125 2.265625 4.8125 Z M 2.265625 4.8125 "/></g></g></g><g fill="#ffffff" fill-opacity="1"><g transform="translate(129.888794, 61.606425)"><g/></g></g><g fill="#ffffff" fill-opacity="1"><g transform="translate(131.061811, 65.795707)"><g><path d="M -0.796875 16.78125 C -0.378906 16.800781 -0.148438 16.664062 -0.109375 16.375 C -0.078125 16.28125 -0.0625 16.191406 -0.0625 16.109375 L -0.015625 15.203125 L 15.8125 9.734375 L 15.859375 8.515625 L 0.625 1.734375 L 0.703125 0.03125 L 0 0 L -0.234375 4.84375 C 0.179688 4.863281 0.410156 4.738281 0.453125 4.46875 C 0.484375 4.382812 0.5 4.296875 0.5 4.203125 L 0.5625 2.828125 L 5.71875 5.109375 L 5.453125 10.6875 L 0.109375 12.46875 L 0.203125 10.65625 L -0.5 10.625 Z M 6.265625 10.421875 L 6.5 5.453125 L 12.84375 8.21875 Z M 6.265625 10.421875 "/></g></g></g><g fill="#ffffff" fill-opacity="1"><g transform="translate(130.421206, 81.142273)"><g><path d="M -1.21875 6.03125 L -0.890625 4.984375 L 4.796875 6.796875 C 6.335938 7.328125 7.296875 8.222656 7.671875 9.484375 C 7.796875 10.015625 7.785156 10.5 7.640625 10.9375 C 7.304688 11.988281 6.582031 12.53125 5.46875 12.5625 C 5.0625 12.5625 4.632812 12.488281 4.1875 12.34375 L -1.015625 10.671875 C -1.785156 10.429688 -2.179688 10.0625 -2.203125 9.5625 C -2.210938 9.28125 -2.140625 8.894531 -1.984375 8.40625 L -2.625 8.203125 L -4.484375 14.03125 C -4.109375 14.15625 -3.859375 14.09375 -3.734375 13.84375 C -3.703125 13.78125 -3.671875 13.695312 -3.640625 13.59375 L -3.25 12.375 L 3.203125 14.4375 C 5.015625 15.019531 6.457031 14.800781 7.53125 13.78125 C 7.988281 13.351562 8.316406 12.832031 8.515625 12.21875 C 8.921875 10.957031 8.742188 9.738281 7.984375 8.5625 C 7.742188 8.15625 7.429688 7.796875 7.046875 7.484375 L 9.5 8.15625 L 10.75 4.25 L 10.109375 4.046875 L 9.515625 5.890625 L 1.34375 3.265625 C 0.550781 3.015625 0.15625 2.625 0.15625 2.09375 C 0.164062 1.8125 0.25 1.425781 0.40625 0.9375 L -0.234375 0.734375 L -2.0625 6.46875 C -1.6875 6.59375 -1.441406 6.535156 -1.328125 6.296875 C -1.285156 6.222656 -1.25 6.132812 -1.21875 6.03125 Z M -1.21875 6.03125 "/></g></g></g><g fill="#ffffff" fill-opacity="1"><g transform="translate(126.16096, 94.539347)"><g><path d="M -5.671875 8.90625 C -6.347656 10.019531 -6.191406 11.019531 -5.203125 11.90625 C -4.992188 12.082031 -4.757812 12.253906 -4.5 12.421875 L -4.109375 11.84375 C -5.160156 11.0625 -5.546875 10.425781 -5.265625 9.9375 C -5.003906 9.570312 -4.488281 9.609375 -3.71875 10.046875 L 1.171875 12.984375 C 3.535156 14.378906 5.484375 13.816406 7.015625 11.296875 C 8.097656 9.492188 8.410156 8.054688 7.953125 6.984375 C 7.785156 6.648438 7.570312 6.40625 7.3125 6.25 C 6.8125 5.945312 6.367188 5.992188 5.984375 6.390625 C 5.898438 6.484375 5.832031 6.578125 5.78125 6.671875 C 5.53125 7.085938 5.597656 7.539062 5.984375 8.03125 C 6.453125 8.601562 6.710938 8.9375 6.765625 9.03125 C 6.992188 9.5625 6.929688 10.125 6.578125 10.71875 C 5.710938 12.070312 4.488281 12.285156 2.90625 11.359375 L 1.4375 10.484375 C 3.75 6.609375 4.117188 3.984375 2.546875 2.609375 C 2.398438 2.460938 2.226562 2.332031 2.03125 2.21875 C 0.800781 1.476562 -0.34375 1.519531 -1.40625 2.34375 C -1.800781 2.65625 -2.140625 3.039062 -2.421875 3.5 C -3.109375 4.632812 -3.285156 5.804688 -2.953125 7.015625 C -2.828125 7.472656 -2.640625 7.867188 -2.390625 8.203125 C -3.898438 7.566406 -4.992188 7.800781 -5.671875 8.90625 Z M -1.984375 4.9375 C -1.398438 3.96875 -0.523438 3.734375 0.640625 4.234375 C 0.804688 4.316406 0.972656 4.410156 1.140625 4.515625 C 2.179688 5.140625 2.5 6.109375 2.09375 7.421875 C 1.863281 8.109375 1.425781 9 0.78125 10.09375 L -1.140625 8.9375 C -2.035156 8.019531 -2.429688 7.019531 -2.328125 5.9375 C -2.265625 5.550781 -2.148438 5.21875 -1.984375 4.9375 Z M -1.984375 4.9375 "/></g></g></g><g fill="#ffffff" fill-opacity="1"><g transform="translate(119.80142, 104.854068)"><g><path d="M -3.8125 5.4375 L -2.84375 4.328125 L 9.96875 15.40625 L 12.8125 12.109375 L 12.28125 11.65625 L 10.9375 13.21875 L -0.140625 3.640625 C -0.753906 3.109375 -0.960938 2.601562 -0.765625 2.125 C -0.640625 1.84375 -0.382812 1.476562 0 1.03125 L -0.515625 0.59375 L -4.75 5.5 C -4.445312 5.757812 -4.195312 5.800781 -4 5.625 C -3.9375 5.570312 -3.875 5.507812 -3.8125 5.4375 Z M -3.8125 5.4375 "/></g></g></g><g fill="#ffffff" fill-opacity="1"><g transform="translate(115.450332, 110.354303)"><g><path d="M -5 -1.5 C -4.769531 -1.675781 -4.445312 -1.640625 -4.03125 -1.390625 C -3.507812 -1.085938 -3.128906 -0.945312 -2.890625 -0.96875 C -2.703125 -1 -2.53125 -1.082031 -2.375 -1.21875 C -1.90625 -1.601562 -1.789062 -2.023438 -2.03125 -2.484375 C -2.0625 -2.554688 -2.097656 -2.617188 -2.140625 -2.671875 C -2.566406 -3.191406 -3.195312 -3.320312 -4.03125 -3.0625 C -4.4375 -2.9375 -4.804688 -2.738281 -5.140625 -2.46875 C -6.242188 -1.570312 -6.65625 -0.125 -6.375 1.875 C -6.257812 2.675781 -6.046875 3.582031 -5.734375 4.59375 L -2.484375 14.875 C -2.304688 15.382812 -2.285156 15.738281 -2.421875 15.9375 C -2.492188 16.019531 -2.582031 16.101562 -2.6875 16.1875 C -2.988281 16.4375 -3.097656 16.65625 -3.015625 16.84375 C -2.953125 16.9375 -2.867188 17.046875 -2.765625 17.171875 L 0.421875 14.5625 L -0.03125 14.015625 L -1.5625 15.28125 L -4.265625 6.609375 L 3.84375 10.84375 L 2.453125 11.984375 L 2.90625 12.53125 L 7.171875 9.046875 L 6.71875 8.5 L 5.71875 9.3125 L -5.03125 3.984375 C -5.75 1.554688 -5.894531 -0.078125 -5.46875 -0.921875 C -5.332031 -1.148438 -5.175781 -1.34375 -5 -1.5 Z M -5 -1.5 "/></g></g></g><g fill="#ffffff" fill-opacity="1"><g transform="translate(106.143528, 117.974306)"><g><path d="M -4.34375 2.84375 C -5.445312 3.425781 -5.984375 4.148438 -5.953125 5.015625 C -5.941406 5.296875 -5.875 5.554688 -5.75 5.796875 C -5.363281 6.503906 -4.550781 6.835938 -3.3125 6.796875 C -3.050781 6.796875 -2.625 6.769531 -2.03125 6.71875 C -0.46875 6.59375 0.65625 6.648438 1.34375 6.890625 C 2.0625 7.160156 2.609375 7.640625 2.984375 8.328125 C 3.578125 9.460938 3.382812 10.601562 2.40625 11.75 C 1.90625 12.257812 1.316406 12.695312 0.640625 13.0625 C -0.441406 13.644531 -1.472656 13.914062 -2.453125 13.875 C -2.210938 14.332031 -2.1875 14.648438 -2.375 14.828125 C -2.445312 14.890625 -2.546875 14.957031 -2.671875 15.03125 L -4.265625 12.03125 L -3.625 11.6875 C -2.800781 13.132812 -1.59375 13.441406 0 12.609375 C 1.144531 11.992188 1.671875 11.257812 1.578125 10.40625 C 1.546875 10.1875 1.484375 9.984375 1.390625 9.796875 C 1.023438 9.109375 0.226562 8.785156 -1 8.828125 C -1.28125 8.828125 -1.703125 8.859375 -2.265625 8.921875 C -3.835938 9.085938 -4.960938 9.050781 -5.640625 8.8125 C -6.378906 8.519531 -6.941406 8.015625 -7.328125 7.296875 C -8.023438 5.984375 -7.800781 4.75 -6.65625 3.59375 C -6.207031 3.125 -5.660156 2.71875 -5.015625 2.375 C -3.828125 1.75 -2.648438 1.472656 -1.484375 1.546875 C -1.703125 1.128906 -1.71875 0.832031 -1.53125 0.65625 C -1.457031 0.601562 -1.351562 0.539062 -1.21875 0.46875 L 0.71875 4.09375 L 0.03125 4.46875 C -1.09375 2.4375 -2.550781 1.894531 -4.34375 2.84375 Z M -4.34375 2.84375 "/></g></g></g><g fill="#ffffff" fill-opacity="1"><g transform="translate(97.311418, 122.682408)"><g><path d="M 3 10.421875 L 1.203125 11.03125 L -1.203125 3.96875 C -2.078125 1.757812 -3.503906 0.953125 -5.484375 1.546875 C -7.085938 2.097656 -7.757812 3.40625 -7.5 5.46875 C -7.488281 5.476562 -7.484375 5.488281 -7.484375 5.5 L -6.734375 5.40625 C -6.898438 3.769531 -6.546875 2.789062 -5.671875 2.46875 C -4.753906 2.195312 -4.078125 2.695312 -3.640625 3.96875 L -0.984375 11.765625 L -4.84375 13.078125 L -4.625 13.734375 L -0.765625 12.421875 L 0.25 15.390625 L 2.25 14.109375 L 1.421875 11.6875 L 3.21875 11.078125 Z M 3 10.421875 "/></g></g></g><g fill="#ffffff" fill-opacity="1"><g transform="translate(89.41383, 125.294139)"><g/></g></g><g fill="#ffffff" fill-opacity="1"><g transform="translate(84.74952, 126.320882)"><g><path d="M -4 1.859375 C -3.925781 2.484375 -3.59375 2.898438 -3 3.109375 C -2.769531 3.191406 -2.546875 3.21875 -2.328125 3.1875 C -1.710938 3.113281 -1.304688 2.78125 -1.109375 2.1875 C -1.035156 1.9375 -1.007812 1.707031 -1.03125 1.5 C -1.113281 0.875 -1.457031 0.457031 -2.0625 0.25 C -2.28125 0.1875 -2.492188 0.164062 -2.703125 0.1875 C -3.328125 0.269531 -3.738281 0.617188 -3.9375 1.234375 C -4.007812 1.429688 -4.03125 1.640625 -4 1.859375 Z M -4 1.859375 "/></g></g></g><g fill="#ffffff" fill-opacity="1"><g transform="translate(79.879141, 126.948778)"><g/></g></g></svg>